 http://keepitclassic.com/wp-content/uploads/2012/08/total-recall-1.jpg

Total Recall 2012 TS XviD-INFERNO

Source:Total Recall 2012 720p TS XViD - ARiSE... THX
 
http://www.imdb.com/title/tt1386703/

Format : AVI
Format/Info : Audio Video Interleave
File size : 1.60 GiB
Duration : 1h 49mn
Overall bit rate : 2 101 Kbps
Writing library : VirtualDub build 33848/release

Video
ID : 0
Format : MPEG-4 Visual
Format profile : Advanced Simple@L5
Format settings, BVOP : Yes
Format settings, QPel : No
Format settings, GMC : No warppoints
Format settings, Matrix : Default (H.263)
Muxing mode : Packed bitstream
Codec ID : XVID
Codec ID/Hint : XviD
Duration : 1h 49mn
Bit rate : 1 899 Kbps
Width : 720 pixels
Height : 342 pixels
Display aspect ratio : 2.2:1
Frame rate : 25.000 fps
Color space : YUV
Chroma subsampling : 4:2:0
Bit depth : 8 bits
Scan type : Progressive
Bits/(Pixel*Frame) : 0.309
Stream size : 1.45 GiB (90%)
Writing library : XviD 1.2.1 (UTC 2008-12-04)

Audio
ID : 1
Format : MPEG Audio
Format version : Version 1
Format profile : Layer 3
Mode : Joint stereo
Mode extension : MS Stereo
Codec ID : 55
Codec ID/Hint : MP3
Duration : 1h 49mn
Bit rate mode : Constant
Bit rate : 192 Kbps
Channel(s) : 2 channels
Sampling rate : 44.1 KHz
Stream size : 150 MiB (9%)
Alignment : Split accross interleaves
Interleave, duration : 40 ms (1.00 video frame)
Interleave, preload duration : 500 ms
Writing library : LAME3.98.2

Workdone:
well.. we decided to go with ARiSE 720p and resize it and then we adjusted saturation and RGB to the best we could without over doing it. Adjusted the levels to make blacks more black and a HQ smother. For the audio we took the noise out and put some audio enhancement to give a bit more a kick to it. Enjoy!
 
http://imageshack.us/a/img607/813/2wuhbsxh.jpg 
http://imageshack.us/a/img802/630/4fkxpljw.jpg 
http://imageshack.us/a/img839/3260/8zaj0zcc.jpg 
http://imageshack.us/a/img805/8759/zsz1htel.jpg 
http://imageshack.us/a/img515/4936/dk0htci5.jpg